<svg width="32" height="36" viewBox="0 0 32 36" fill="none" xmlns="http://www.w3.org/2000/svg">
<path d="M32 18.0914C31.8526 28.6742 24.674 35.7504 16 35.5914C7.16344 35.5914 0 27.7564 0 18.0914C0.234359 8.18088 6.5 -0.479344 16 0.0206306C25.5 0.0206299 32.1474 7.5087 32 18.0914Z" fill="#812A24"/>
<path d="M27.9983 18.546C27.8707 25.8376 22.5042 31.6367 15.9992 31.5189C9.37221 31.5189 4 25.7107 4 18.546C4.17576 11.1992 9.57862 4.80734 16 5.0207C23 5.02063 28.1089 10.7009 27.9983 18.546Z" fill="#A96E6A"/>
<path d="M22.999 18.0353C22.9246 22.242 19.7946 26.0886 16 26.0206C12.1343 26.0206 9 22.1688 9 18.0353C9.10252 13.7968 12.2542 9.89757 16 10.0207C21 10.0206 23.0635 13.5093 22.999 18.0353Z" fill="#E6D4D3"/>
</svg>
