<svg width="286" height="55" viewBox="0 0 286 55" fill="none" xmlns="http://www.w3.org/2000/svg">
<path d="M34 44.048C31.152 44.048 29.728 43.728 29.728 43.088L28.72 23.84L22.864 43.328C22.736 43.712 21.648 43.904 19.6 43.904C17.552 43.904 16.496 43.728 16.432 43.376L10.384 23.648L9.712 42.8C9.68 43.28 9.072 43.616 7.888 43.808C6.704 43.968 5.712 44.048 4.912 44.048C4.144 44.048 3.392 44 2.656 43.904C1.12 43.68 0.368 43.28 0.4 42.704L1.504 11.504C1.504 10.736 3.456 10.352 7.36 10.352C8.512 10.352 9.92 10.448 11.584 10.64C13.248 10.8 14.176 11.136 14.368 11.648L19.744 26.768L24.448 11.6C24.736 10.768 26.944 10.352 31.072 10.352C32.256 10.352 33.664 10.448 35.296 10.64C36.96 10.8 37.792 11.104 37.792 11.552L39.184 43.04C39.184 43.392 38.56 43.648 37.312 43.808C36.064 43.968 34.96 44.048 34 44.048ZM58.2029 44.48C53.7229 44.48 50.0589 43.008 47.2109 40.064C44.3949 37.12 42.9869 32.832 42.9869 27.2C42.9869 21.536 44.4109 17.248 47.2589 14.336C50.1389 11.424 53.8349 9.968 58.3469 9.968C62.8909 9.968 66.5549 11.408 69.3389 14.288C72.1229 17.136 73.5149 21.472 73.5149 27.296C73.5149 33.088 72.0909 37.408 69.2429 40.256C66.3949 43.072 62.7149 44.48 58.2029 44.48ZM58.2509 19.184C56.7149 19.184 55.4189 19.888 54.3629 21.296C53.3389 22.704 52.8269 24.688 52.8269 27.248C52.8269 29.776 53.3229 31.728 54.3149 33.104C55.3069 34.448 56.6029 35.12 58.2029 35.12C59.8349 35.12 61.1469 34.432 62.1389 33.056C63.1629 31.68 63.6749 29.712 63.6749 27.152C63.6749 24.592 63.1469 22.624 62.0909 21.248C61.0669 19.872 59.7869 19.184 58.2509 19.184ZM77.3688 41.792V12.992C77.3688 12.192 77.5608 11.568 77.9448 11.12C78.3608 10.64 78.8888 10.4 79.5288 10.4H87.5448C92.6328 10.4 96.4888 11.68 99.1128 14.24C101.769 16.8 103.097 20.832 103.097 26.336C103.097 38.112 98.0728 44 88.0248 44H79.8168C78.1848 44 77.3688 43.264 77.3688 41.792ZM86.5848 19.52V33.872C86.5848 34.544 86.6328 34.976 86.7288 35.168C86.8248 35.328 87.1128 35.408 87.5928 35.408C89.3528 35.408 90.6808 34.752 91.5768 33.44C92.5048 32.128 92.9688 29.952 92.9688 26.912C92.9688 23.84 92.4888 21.84 91.5288 20.912C90.6008 19.984 89.1128 19.52 87.0648 19.52H86.5848ZM122.547 23.744C123.155 23.744 123.459 24.864 123.459 27.104C123.459 27.776 123.379 28.576 123.219 29.504C123.091 30.4 122.835 30.848 122.451 30.848H116.355V35.648H125.187C125.731 35.648 126.099 36.352 126.291 37.76C126.387 38.368 126.435 39.024 126.435 39.728C126.435 40.4 126.339 41.28 126.147 42.368C125.955 43.456 125.635 44 125.187 44H108.771C107.555 44 106.947 43.504 106.947 42.512V11.648C106.947 10.816 107.315 10.4 108.051 10.4H125.235C125.907 10.4 126.243 11.824 126.243 14.672C126.243 17.488 125.907 18.896 125.235 18.896H116.355V23.744H122.547ZM139.787 43.328C139.787 43.84 138.267 44.096 135.227 44.096C132.155 44.096 130.619 43.856 130.619 43.376V12.08C130.619 10.96 131.211 10.4 132.395 10.4H141.563C149.979 10.4 154.187 13.68 154.187 20.24C154.187 22.224 153.803 24.032 153.035 25.664C152.267 27.264 151.179 28.544 149.771 29.504L155.819 39.584C155.563 40.352 154.731 41.232 153.323 42.224C151.403 43.6 149.819 44.288 148.571 44.288C147.323 44.288 146.395 43.84 145.787 42.944L141.275 32.432H139.787V43.328ZM139.787 18.896V26.096H140.027C143.067 26.096 144.587 24.832 144.587 22.304C144.587 21.152 144.283 20.304 143.675 19.76C143.099 19.184 142.139 18.896 140.795 18.896H139.787ZM181.491 44.096C178.707 44.096 177.203 43.648 176.979 42.752L175.395 36.56H167.763L166.371 42.512C166.179 43.504 164.643 44 161.763 44C160.227 44 159.091 43.92 158.355 43.76C157.619 43.568 157.251 43.424 157.251 43.328L165.747 10.832C165.747 10.576 167.939 10.448 172.323 10.448C176.707 10.448 178.899 10.576 178.899 10.832L187.203 43.376C187.203 43.6 186.467 43.776 184.995 43.904C183.523 44.032 182.355 44.096 181.491 44.096ZM168.963 30.464H174.003L171.843 20.528H171.555L168.963 30.464ZM203.614 43.232C203.614 43.872 202.03 44.192 198.862 44.192C195.694 44.192 194.11 43.872 194.11 43.232V19.136H188.35C187.806 19.136 187.422 18.4 187.198 16.928C187.102 16.224 187.054 15.504 187.054 14.768C187.054 14.032 187.102 13.312 187.198 12.608C187.422 11.136 187.806 10.4 188.35 10.4H209.23C209.774 10.4 210.158 11.136 210.382 12.608C210.478 13.312 210.526 14.032 210.526 14.768C210.526 15.504 210.478 16.224 210.382 16.928C210.158 18.4 209.774 19.136 209.23 19.136H203.614V43.232ZM227.515 44.48C223.035 44.48 219.371 43.008 216.523 40.064C213.707 37.12 212.299 32.832 212.299 27.2C212.299 21.536 213.723 17.248 216.571 14.336C219.451 11.424 223.147 9.968 227.659 9.968C232.203 9.968 235.867 11.408 238.651 14.288C241.435 17.136 242.827 21.472 242.827 27.296C242.827 33.088 241.403 37.408 238.555 40.256C235.707 43.072 232.027 44.48 227.515 44.48ZM227.563 19.184C226.027 19.184 224.731 19.888 223.675 21.296C222.651 22.704 222.139 24.688 222.139 27.248C222.139 29.776 222.635 31.728 223.627 33.104C224.619 34.448 225.915 35.12 227.515 35.12C229.147 35.12 230.459 34.432 231.451 33.056C232.475 31.68 232.987 29.712 232.987 27.152C232.987 24.592 232.459 22.624 231.403 21.248C230.379 19.872 229.099 19.184 227.563 19.184ZM255.849 43.328C255.849 43.84 254.329 44.096 251.289 44.096C248.217 44.096 246.681 43.856 246.681 43.376V12.08C246.681 10.96 247.273 10.4 248.457 10.4H257.625C266.041 10.4 270.249 13.68 270.249 20.24C270.249 22.224 269.865 24.032 269.097 25.664C268.329 27.264 267.241 28.544 265.833 29.504L271.881 39.584C271.625 40.352 270.793 41.232 269.385 42.224C267.465 43.6 265.881 44.288 264.633 44.288C263.385 44.288 262.457 43.84 261.849 42.944L257.337 32.432H255.849V43.328ZM255.849 18.896V26.096H256.089C259.129 26.096 260.649 24.832 260.649 22.304C260.649 21.152 260.345 20.304 259.737 19.76C259.161 19.184 258.201 18.896 256.857 18.896H255.849Z" fill="white"/>
<path d="M74.9975 27.6554C74.8455 38.568 67.4431 45.8648 58.4988 45.7009C49.3867 45.7009 42 37.6217 42 27.6554C42.2417 17.4359 48.7026 8.50571 58.4988 9.02127C68.2949 9.02127 75.1495 16.7428 74.9975 27.6554Z" fill="#812A24"/>
<path d="M70.8711 28.1242C70.7395 35.6431 65.2057 41.6229 58.4979 41.5014C51.6644 41.5014 46.1247 35.5122 46.1247 28.1242C46.3059 20.5484 51.8772 13.9572 58.4988 14.1772C65.717 14.1772 70.9851 20.0345 70.8711 28.1242Z" fill="#A96E6A"/>
<path d="M65.716 27.5975C65.6392 31.9353 62.4116 35.9018 58.4988 35.8317C54.5125 35.8317 51.2805 31.8598 51.2805 27.5975C51.3863 23.2268 54.6362 19.2061 58.4988 19.333C63.6546 19.333 65.7825 22.9304 65.716 27.5975Z" fill="#E6D4D3"/>
<path d="M244.354 27.8614C244.2 38.8818 238.136 46.2022 227.692 46.0851C217.248 45.9679 210.973 39.051 211.03 27.8614C210.528 17.3274 216.237 8.50131 228.213 9.02192C238.626 9.02192 244.507 16.8411 244.354 27.8614Z" fill="#812A24"/>
<path d="M240.186 28.3347C240.054 35.9279 234.465 41.9667 227.691 41.844C220.79 41.844 215.196 35.7957 215.196 28.3347C215.379 20.6842 221.005 14.028 227.692 14.2502C234.981 14.2501 240.302 20.1653 240.186 28.3347Z" fill="#A96E6A"/>
<path d="M234.98 27.8028C234.903 32.1835 231.644 36.1892 227.692 36.1184C223.666 36.1184 220.403 32.1072 220.403 27.8028C220.509 23.389 223.791 19.3286 227.692 19.4568C232.899 19.4568 235.048 23.0897 234.98 27.8028Z" fill="#E6D4D3"/>
</svg>
